<svg xmlns="http://www.w3.org/2000/svg" xmlns:xlink="http://www.w3.org/1999/xlink" width="1514" height="1080" viewBox="0 0 1514 1080"><defs><style>.a{fill:none;}.ab,.ae,.an,.aq,.az,.b,.bf,.bl,.bt,.by,.cg,.cl,.ct,.cx,.f,.j,.p,.s{opacity:0.5;}.c{clip-path:url(#a);}.bc,.bh,.d,.dg,.j{fill:#0c0c0c;}.e{fill:url(#b);}.f{fill:url(#c);}.g{fill:url(#d);}.h{fill:url(#e);}.i{fill:url(#f);}.k{fill:url(#g);}.l{fill:url(#h);}.m{fill:url(#i);}.n{fill:url(#j);}.o{fill:url(#k);}.p{fill:url(#l);}.q{fill:url(#m);}.r{fill:url(#n);}.s{fill:url(#o);}.t{fill:url(#p);}.u{fill:url(#q);}.v{fill:url(#r);}.w{fill:url(#s);}.x{fill:url(#t);}.y{fill:url(#u);}.z{fill:url(#v);}.aa{fill:url(#w);}.ab{fill:url(#x);}.ac{fill:url(#y);}.ad{fill:url(#z);}.ae{fill:url(#aa);}.af{fill:url(#ab);}.ag{fill:url(#ac);}.ah{fill:url(#ad);}.ai{fill:url(#ae);}.aj{fill:url(#af);}.ak{fill:url(#ag);}.al{fill:url(#ah);}.am{fill:url(#ai);}.an{fill:url(#aj);}.ao{fill:url(#ak);}.ap{fill:url(#al);}.aq{fill:url(#am);}.ar{fill:url(#an);}.as{fill:url(#ao);}.at{fill:url(#ap);}.au{fill:url(#aq);}.av{fill:url(#ar);}.aw{fill:url(#as);}.ax{fill:url(#at);}.ay{fill:url(#au);}.az{fill:url(#av);}.ba{fill:url(#aw);}.bb{fill:url(#ax);}.bc,.be,.bg,.bi,.bj,.bm,.bn,.bs,.bu,.bv,.bw,.bx,.bz,.ca,.cf,.ch,.ci,.cj,.ck,.cm,.cn,.cs,.cu,.cv,.cw,.cy,.cz,.ek,.ev,.ey,.fi,.fl,.fy,.gb,.gl,.gp,.gt,.gz,.hd,.hj,.hn,.ht,.hx{opacity:0.4;}.bd,.bh,.bo,.br,.cb,.ce,.co,.cr,.da,.dd,.de,.df,.dh,.di,.dl,.dm,.dq,.dr,.dw,.dx,.ej,.el,.eo,.et,.eu,.ew,.ex,.ez,.fc,.fg,.fh,.fj,.fk,.fm,.ft,.fw,.fx,.fz,.ga,.gc,.gg,.gj,.gk,.gm{opacity:0.3;}.bd{fill:url(#ay);}.be{fill:url(#az);}.bf{fill:url(#ba);}.bg{fill:url(#bb);}.bi{fill:url(#bc);}.bj{fill:url(#bd);}.bk{fill:url(#be);}.bl{fill:url(#bf);}.bm{fill:url(#bg);}.bn{fill:url(#bh);}.bo{fill:url(#bi);}.bp{fill:url(#bj);}.bq{fill:url(#bk);}.br{fill:url(#bl);}.bs{fill:url(#bm);}.bt{fill:url(#bn);}.bu{fill:url(#bp);}.bv{fill:url(#bq);}.bw{fill:url(#br);}.bx{fill:url(#bs);}.by{fill:url(#bu);}.bz{fill:url(#bv);}.ca{fill:url(#bw);}.cb{fill:url(#bx);}.cc{fill:url(#by);}.cd{fill:url(#bz);}.ce{fill:url(#ca);}.cf{fill:url(#cb);}.cg{fill:url(#cc);}.ch{fill:url(#ce);}.ci{fill:url(#cf);}.cj{fill:url(#cg);}.ck{fill:url(#ch);}.cl{fill:url(#cj);}.cm{fill:url(#ck);}.cn{fill:url(#cl);}.co{fill:url(#cm);}.cp{fill:url(#cn);}.cq{fill:url(#co);}.cr{fill:url(#cp);}.cs{fill:url(#cq);}.ct{fill:url(#cr);}.cu{fill:url(#ct);}.cv{fill:url(#cu);}.cw{fill:url(#cv);}.cx{fill:url(#cw);}.cy{fill:url(#cx);}.cz{fill:url(#cy);}.da{fill:url(#cz);}.db{fill:url(#da);}.dc,.dg,.dj,.dk,.dn,.do,.dp,.ds,.dt,.du,.dv,.dy,.dz,.ea,.eb,.ec,.ed,.ee,.ef,.eg,.eh,.ei,.em,.eq,.er,.es,.fa,.fe,.ff,.fn,.fv,.gd,.ge,.gi{opacity:0.2;}.dc{fill:url(#db);}.dd{fill:url(#dc);}.de{fill:url(#dd);}.df{fill:url(#de);}.dh{fill:url(#df);}.di{fill:url(#dg);}.dj{fill:url(#dh);}.dk{fill:url(#di);}.dl{fill:url(#dj);}.dm{fill:url(#dk);}.dn{fill:url(#dl);}.do{fill:url(#dm);}.dp{fill:url(#dn);}.dq{fill:url(#do);}.dr{fill:url(#dp);}.ds{fill:url(#dq);}.dt{fill:url(#dr);}.du{fill:url(#ds);}.dv{fill:url(#dt);}.dw{fill:url(#du);}.dx{fill:url(#dv);}.dy{fill:url(#dw);}.dz{fill:url(#dx);}.ea{fill:url(#dy);}.eb{fill:url(#dz);}.ec{fill:url(#ea);}.ed{fill:url(#eb);}.ee{fill:url(#ec);}.ef{fill:url(#ed);}.eg{fill:url(#ee);}.eh{fill:url(#ef);}.ei{fill:url(#eg);}.ej{fill:url(#eh);}.ek{fill:url(#ei);}.el{fill:url(#ej);}.em{fill:url(#ek);}.en{fill:url(#el);}.eo{fill:url(#em);}.ep{fill:url(#en);}.eq{fill:url(#eo);}.er{fill:url(#ep);}.es{fill:url(#eq);}.et{fill:url(#er);}.eu{fill:url(#es);}.ev{fill:url(#et);}.ew{fill:url(#ev);}.ex{fill:url(#ew);}.ey{fill:url(#ey);}.ez{fill:url(#ez);}.fa{fill:url(#fa);}.fb{fill:url(#fb);}.fc{fill:url(#fc);}.fd{fill:url(#fd);}.fe{fill:url(#fe);}.ff{fill:url(#ff);}.fg{fill:url(#fg);}.fh{fill:url(#fh);}.fi{fill:url(#fi);}.fj{fill:url(#fk);}.fk{fill:url(#fl);}.fl{fill:url(#fn);}.fm{fill:url(#fo);}.fn{fill:url(#fp);}.fo,.fp,.fq,.fr{opacity:0.15;}.fo{fill:url(#fq);}.fp{fill:url(#fr);}.fq{fill:url(#fs);}.fr{fill:url(#ft);}.fs{fill:url(#fu);}.ft{fill:url(#fv);}.fu{fill:url(#fw);}.fv{fill:url(#fx);}.fw{fill:url(#fy);}.fx{fill:url(#fz);}.fy{fill:url(#ga);}.fz{fill:url(#gc);}.ga{fill:url(#gd);}.gb{fill:url(#gf);}.gc{fill:url(#gg);}.gd{fill:url(#gh);}.ge{fill:url(#gi);}.gf{fill:url(#gj);}.gg{fill:url(#gk);}.gh{fill:url(#gl);}.gi{fill:url(#gm);}.gj{fill:url(#gn);}.gk{fill:url(#go);}.gl{fill:url(#gp);}.gm{fill:url(#gq);}.gn{fill:url(#gr);}.go{fill:url(#gs);}.gp{fill:url(#gt);}.gq{fill:url(#gu);}.gr{fill:url(#gv);}.gs{fill:url(#gw);}.gt{fill:url(#gx);}.gu{fill:url(#gy);}.gv{fill:url(#gz);}.gw{fill:url(#ha);}.gx{fill:url(#hb);}.gy{fill:url(#hc);}.gz{fill:url(#hd);}.ha{fill:url(#he);}.hb{fill:url(#hf);}.hc{fill:url(#hg);}.hd{fill:url(#hh);}.he{fill:url(#hi);}.hf{fill:url(#hj);}.hg{fill:url(#hk);}.hh{fill:url(#hl);}.hi{fill:url(#hm);}.hj{fill:url(#hn);}.hk{fill:url(#ho);}.hl{fill:url(#hp);}.hm{fill:url(#hq);}.hn{fill:url(#hr);}.ho{fill:url(#hs);}.hp{fill:url(#ht);}.hq{fill:url(#hu);}.hr{fill:url(#hv);}.hs{fill:url(#hw);}.ht{fill:url(#hx);}.hu{fill:url(#hy);}.hv{fill:url(#hz);}.hw{fill:url(#ia);}.hx{fill:url(#ib);}.hy{fill:url(#ic);}.hz{fill:url(#id);}.ia{fill:url(#ie);}.ib{fill:#5323d7;mix-blend-mode:screen;isolation:isolate;}</style><clipPath id="a"><rect class="a" width="1080" height="1514" transform="translate(1514) rotate(90)"/></clipPath><linearGradient id="b" x1="-127.7" y1="-56.282" x2="-127.983" y2="-56.761" gradientUnits="objectBoundingBox"><stop offset="0.429" stop-color="#fff"/><stop offset="0.479" stop-color="#f0f0f0"/><stop offset="0.639" stop-color="#c7c7c7"/><stop offset="0.785" stop-color="#a9a9a9"/><stop offset="0.911" stop-color="#979797"/><stop offset="1" stop-color="#919191"/></linearGradient><linearGradient id="c" x1="-125.968" y1="-58.283" x2="-126.251" y2="-58.761" xlink:href="#b"/><radialGradient id="d" cx="-0.655" cy="0.617" r="0.775" gradientTransform="translate(-174.391 99.276) rotate(90) scale(1 1.732)" xlink:href="#b"/><linearGradient id="e" x1="-128.2" y1="-54.756" x2="-127.334" y2="-54.756" xlink:href="#b"/><linearGradient id="f" x1="-126.468" y1="-56.756" x2="-125.602" y2="-56.756" xlink:href="#b"/><radialGradient id="g" cx="-0.655" cy="0.617" r="0.775" gradientTransform="translate(-172.393 98.854) rotate(90) scale(1 1.732)" gradientUnits="objectBoundingBox"><stop offset="0.429" stop-color="#fff"/><stop offset="0.454" stop-color="#efefef"/><stop offset="0.567" stop-color="#afafaf"/><stop offset="0.674" stop-color="#7a7a7a"/><stop offset="0.774" stop-color="#505050"/><stop offset="0.864" stop-color="#323232"/><stop offset="0.94" stop-color="#202020"/><stop offset="0.995" stop-color="#1a1a1a"/></radialGradient><linearGradient id="h" x1="-23.919" y1="145.269" x2="-24.202" y2="144.79" xlink:href="#b"/><linearGradient id="i" x1="-22.186" y1="147.269" x2="-22.469" y2="146.791" xlink:href="#b"/><radialGradient id="j" cx="1.655" cy="0.383" r="0.775" gradientTransform="translate(-151.771 49.794) rotate(-90) scale(1 1.732)" xlink:href="#b"/><radialGradient id="k" cx="1.655" cy="0.383" r="0.775" gradientTransform="translate(-149.773 50.216) rotate(-90) scale(1 1.732)" xlink:href="#g"/><linearGradient id="l" x1="-26.417" y1="144.795" x2="-25.551" y2="144.795" xlink:href="#b"/><linearGradient id="m" x1="-24.685" y1="146.796" x2="-23.819" y2="146.796" xlink:href="#b"/><linearGradient id="n" x1="-123.703" y1="-51.667" x2="-123.987" y2="-52.145" xlink:href="#b"/><linearGradient id="o" x1="-121.971" y1="-53.668" x2="-122.254" y2="-54.146" xlink:href="#b"/><radialGradient id="p" cx="-0.655" cy="0.617" r="0.775" gradientTransform="translate(-166.397 97.587) rotate(90) scale(1 1.732)" xlink:href="#b"/><linearGradient id="q" x1="-124.204" y1="-50.141" x2="-123.338" y2="-50.141" xlink:href="#b"/><linearGradient id="r" x1="-122.471" y1="-52.141" x2="-121.605" y2="-52.141" xlink:href="#b"/><radialGradient id="s" cx="-0.655" cy="0.617" r="0.775" gradientTransform="translate(-164.399 97.165) rotate(90) scale(1 1.732)" xlink:href="#g"/><linearGradient id="t" x1="-19.922" y1="140.653" x2="-20.205" y2="140.175" xlink:href="#b"/><linearGradient id="u" x1="-18.189" y1="142.654" x2="-18.472" y2="142.176" xlink:href="#b"/><radialGradient id="v" cx="1.655" cy="0.383" r="0.775" gradientTransform="translate(-143.778 51.483) rotate(-90) scale(1 1.732)" xlink:href="#b"/><radialGradient id="w" cx="1.655" cy="0.383" r="0.775" gradientTransform="translate(-141.779 51.905) rotate(-90) scale(1 1.732)" xlink:href="#g"/><linearGradient id="x" x1="-22.42" y1="140.18" x2="-21.554" y2="140.18" xlink:href="#b"/><linearGradient id="y" x1="-20.688" y1="142.181" x2="-19.822" y2="142.181" xlink:href="#b"/><linearGradient id="z" x1="-119.711" y1="-47.057" x2="-119.994" y2="-47.535" xlink:href="#b"/><linearGradient id="aa" x1="-117.978" y1="-49.057" x2="-118.261" y2="-49.536" xlink:href="#b"/><radialGradient id="ab" cx="-0.655" cy="0.617" r="0.775" gradientTransform="translate(-158.412 95.9) rotate(90) scale(1 1.732)" xlink:href="#b"/><linearGradient id="ac" x1="-120.211" y1="-45.53" x2="-119.345" y2="-45.53" xlink:href="#b"/><linearGradient id="ad" x1="-118.478" y1="-47.531" x2="-117.612" y2="-47.531" xlink:href="#b"/><radialGradient id="ae" cx="-0.655" cy="0.617" r="0.775" gradientTransform="translate(-156.414 95.477) rotate(90) scale(1 1.732)" xlink:href="#g"/><linearGradient id="af" x1="-15.929" y1="136.043" x2="-16.212" y2="135.565" xlink:href="#b"/><linearGradient id="ag" x1="-14.197" y1="138.044" x2="-14.48" y2="137.566" xlink:href="#b"/><radialGradient id="ah" cx="1.655" cy="0.383" r="0.775" gradientTransform="translate(-135.792 53.17) rotate(-90) scale(1 1.732)" xlink:href="#b"/><radialGradient id="ai" cx="1.655" cy="0.383" r="0.775" gradientTransform="translate(-133.794 53.593) rotate(-90) scale(1 1.732)" xlink:href="#g"/><linearGradient id="aj" x1="-18.428" y1="135.57" x2="-17.562" y2="135.57" xlink:href="#b"/><linearGradient id="ak" x1="-16.695" y1="137.57" x2="-15.829" y2="137.57" xlink:href="#b"/><linearGradient id="al" x1="-115.714" y1="-42.442" x2="-115.997" y2="-42.92" xlink:href="#b"/><linearGradient id="am" x1="-113.981" y1="-44.442" x2="-114.264" y2="-44.92" xlink:href="#b"/><radialGradient id="an" cx="-0.655" cy="0.617" r="0.775" gradientTransform="translate(-150.418 94.21) rotate(90) scale(1 1.732)" xlink:href="#b"/><linearGradient id="ao" x1="-116.214" y1="-40.915" x2="-115.348" y2="-40.915" xlink:href="#b"/><linearGradient id="ap" x1="-114.481" y1="-42.916" x2="-113.615" y2="-42.916" xlink:href="#b"/><radialGradient id="aq" cx="-0.655" cy="0.617" r="0.775" gradientTransform="translate(-148.42 93.788) rotate(90) scale(1 1.732)" xlink:href="#g"/><linearGradient id="ar" x1="-11.932" y1="131.428" x2="-12.215" y2="130.95" xlink:href="#b"/><linearGradient id="as" x1="-10.2" y1="133.428" x2="-10.483" y2="132.95" xlink:href="#b"/><radialGradient id="at" cx="1.655" cy="0.383" r="0.775" gradientTransform="translate(-127.799 54.86) rotate(-90) scale(1 1.732)" xlink:href="#b"/><radialGradient id="au" cx="1.655" cy="0.383" r="0.775" gradientTransform="translate(-125.8 55.282) rotate(-90) scale(1 1.732)" xlink:href="#g"/><linearGradient id="av" x1="-14.431" y1="130.954" x2="-13.565" y2="130.954" xlink:href="#b"/><linearGradient id="aw" x1="-12.698" y1="132.955" x2="-11.832" y2="132.955" xlink:href="#b"/><linearGradient id="ax" x1="-124.598" y1="-58.702" x2="-124.881" y2="-59.18" xlink:href="#b"/><linearGradient id="ay" x1="-122.854" y1="-60.715" x2="-123.137" y2="-61.193" xlink:href="#b"/><radialGradient id="az" cx="-0.655" cy="0.617" r="0.775" gradientTransform="translate(-173.384 94.956) rotate(90) scale(1 1.732)" xlink:href="#b"/><linearGradient id="ba" x1="-125.098" y1="-57.175" x2="-124.232" y2="-57.175" xlink:href="#b"/><linearGradient id="bb" x1="-123.355" y1="-59.188" x2="-122.489" y2="-59.188" xlink:href="#b"/><radialGradient id="bc" cx="-0.655" cy="0.617" r="0.775" gradientTransform="translate(-171.385 94.534) rotate(90) scale(1 1.732)" xlink:href="#g"/><linearGradient id="bd" x1="-26.025" y1="141.674" x2="-26.308" y2="141.196" xlink:href="#b"/><linearGradient id="be" x1="0" y1="0.5" x2="1" y2="0.5" xlink:href="#b"/><linearGradient id="bf" x1="-24.281" y1="143.687" x2="-24.565" y2="143.209" xlink:href="#b"/><radialGradient id="bg" cx="1.655" cy="0.383" r="0.775" gradientTransform="translate(-150.764 45.899) rotate(-90) scale(1 1.732)" xlink:href="#b"/><radialGradient id="bh" cx="1.655" cy="0.383" r="0.775" gradientTransform="translate(-148.766 46.321) rotate(-90) scale(1 1.732)" xlink:href="#g"/><linearGradient id="bi" x1="-28.524" y1="141.2" x2="-27.658" y2="141.2" xlink:href="#b"/><linearGradient id="bj" x1="-26.78" y1="143.213" x2="-25.914" y2="143.213" xlink:href="#b"/><linearGradient id="bk" x1="-120.601" y1="-54.087" x2="-120.884" y2="-54.565" xlink:href="#b"/><linearGradient id="bl" x1="-118.858" y1="-56.1" x2="-119.141" y2="-56.578" xlink:href="#b"/><radialGradient id="bm" cx="-0.655" cy="0.617" r="0.775" gradientTransform="translate(-165.39 93.267) rotate(90) scale(1 1.732)" xlink:href="#b"/><linearGradient id="bn" x1="-121.101" y1="-52.56" x2="-120.235" y2="-52.56" xlink:href="#b"/><linearGradient id="bp" x1="-119.358" y1="-54.573" x2="-118.492" y2="-54.573" xlink:href="#b"/><radialGradient id="bq" cx="-0.655" cy="0.617" r="0.775" gradientTransform="translate(-163.392 92.844) rotate(90) scale(1 1.732)" xlink:href="#g"/><linearGradient id="br" x1="-22.028" y1="137.058" x2="-22.311" y2="136.58" xlink:href="#b"/><linearGradient id="bs" x1="-25.36" y1="135.204" x2="-25.643" y2="134.726" xlink:href="#b"/><linearGradient id="bu" x1="-20.285" y1="139.072" x2="-20.568" y2="138.593" xlink:href="#b"/><radialGradient id="bv" cx="1.655" cy="0.383" r="0.775" gradientTransform="translate(-142.771 47.588) rotate(-90) scale(1 1.732)" xlink:href="#b"/><radialGradient id="bw" cx="1.655" cy="0.383" r="0.775" gradientTransform="translate(-140.772 48.011) rotate(-90) scale(1 1.732)" xlink:href="#g"/><linearGradient id="bx" x1="-24.527" y1="136.585" x2="-23.661" y2="136.585" xlink:href="#b"/><linearGradient id="by" x1="-22.783" y1="138.598" x2="-21.917" y2="138.598" xlink:href="#b"/><linearGradient id="bz" x1="-116.608" y1="-49.476" x2="-116.891" y2="-49.955" xlink:href="#b"/><linearGradient id="ca" x1="-114.865" y1="-51.49" x2="-115.148" y2="-51.968" xlink:href="#b"/><radialGradient id="cb" cx="-0.655" cy="0.617" r="0.775" gradientTransform="translate(-157.405 91.579) rotate(90) scale(1 1.732)" xlink:href="#b"/><linearGradient id="cc" x1="-117.109" y1="-47.95" x2="-116.243" y2="-47.95" xlink:href="#b"/><linearGradient id="ce" x1="-115.365" y1="-49.963" x2="-114.499" y2="-49.963" xlink:href="#b"/><radialGradient id="cf" cx="-0.655" cy="0.617" r="0.775" gradientTransform="translate(-155.406 91.157) rotate(90) scale(1 1.732)" xlink:href="#g"/><linearGradient id="cg" x1="-18.035" y1="132.448" x2="-18.318" y2="131.97" xlink:href="#b"/><linearGradient id="ch" x1="-18.668" y1="126.701" x2="-18.951" y2="126.223" xlink:href="#b"/><linearGradient id="cj" x1="-16.292" y1="134.461" x2="-16.575" y2="133.983" xlink:href="#b"/><radialGradient id="ck" cx="1.655" cy="0.383" r="0.775" gradientTransform="translate(-134.785 49.276) rotate(-90) scale(1 1.732)" xlink:href="#b"/><radialGradient id="cl" cx="1.655" cy="0.383" r="0.775" gradientTransform="translate(-132.787 49.698) rotate(-90) scale(1 1.732)" xlink:href="#g"/><linearGradient id="cm" x1="-20.534" y1="131.975" x2="-19.668" y2="131.975" xlink:href="#b"/><linearGradient id="cn" x1="-18.791" y1="133.988" x2="-17.925" y2="133.988" xlink:href="#b"/><linearGradient id="co" x1="-112.611" y1="-44.861" x2="-112.895" y2="-45.339" xlink:href="#b"/><linearGradient id="cp" x1="-110.868" y1="-46.874" x2="-111.151" y2="-47.352" xlink:href="#b"/><radialGradient id="cq" cx="-0.655" cy="0.617" r="0.775" gradientTransform="translate(-149.411 89.89) rotate(90) scale(1 1.732)" xlink:href="#b"/><linearGradient id="cr" x1="-113.112" y1="-43.334" x2="-112.246" y2="-43.334" xlink:href="#b"/><linearGradient id="ct" x1="-111.368" y1="-45.348" x2="-110.502" y2="-45.348" xlink:href="#b"/><radialGradient id="cu" cx="-0.655" cy="0.617" r="0.775" gradientTransform="translate(-147.413 89.468) rotate(90) scale(1 1.732)" xlink:href="#g"/><linearGradient id="cv" x1="-14.038" y1="127.833" x2="-14.321" y2="127.355" xlink:href="#b"/><linearGradient id="cw" x1="-12.295" y1="129.846" x2="-12.578" y2="129.368" xlink:href="#b"/><radialGradient id="cx" cx="1.655" cy="0.383" r="0.775" gradientTransform="translate(-126.791 50.965) rotate(-90) scale(1 1.732)" xlink:href="#b"/><radialGradient id="cy" cx="1.655" cy="0.383" r="0.775" gradientTransform="translate(-124.793 51.387) rotate(-90) scale(1 1.732)" xlink:href="#g"/><linearGradient id="cz" x1="-16.537" y1="127.36" x2="-15.671" y2="127.36" xlink:href="#b"/><linearGradient id="da" x1="-14.794" y1="129.373" x2="-13.928" y2="129.373" xlink:href="#b"/><linearGradient id="db" x1="-122.491" y1="-62.297" x2="-122.775" y2="-62.775" xlink:href="#b"/><linearGradient id="dc" x1="-122.992" y1="-60.77" x2="-122.126" y2="-60.77" xlink:href="#b"/><linearGradient id="dd" x1="-118.414" y1="-61.49" x2="-118.697" y2="-61.968" xlink:href="#b"/><linearGradient id="de" x1="-118.551" y1="-61.545" x2="-117.685" y2="-61.545" xlink:href="#b"/><linearGradient id="df" x1="-27.395" y1="141.255" x2="-27.678" y2="140.777" xlink:href="#b"/><linearGradient id="dg" x1="-28.456" y1="140.029" x2="-28.739" y2="139.551" xlink:href="#b"/><linearGradient id="dh" x1="-31.446" y1="140.849" x2="-30.58" y2="140.849" xlink:href="#b"/><linearGradient id="di" x1="-118.495" y1="-57.682" x2="-118.778" y2="-58.16" xlink:href="#b"/><linearGradient id="dj" x1="-118.995" y1="-56.155" x2="-118.129" y2="-56.155" xlink:href="#b"/><linearGradient id="dk" x1="-23.398" y1="136.64" x2="-23.681" y2="136.161" xlink:href="#b"/><linearGradient id="dl" x1="-25.896" y1="136.166" x2="-25.03" y2="136.166" xlink:href="#b"/><linearGradient id="dm" x1="-27.636" y1="136.45" x2="-26.77" y2="136.45" xlink:href="#b"/><linearGradient id="dn" x1="-114.502" y1="-53.071" x2="-114.785" y2="-53.549" xlink:href="#b"/><linearGradient id="do" x1="-115.002" y1="-51.545" x2="-114.136" y2="-51.545" xlink:href="#b"/><linearGradient id="dp" x1="-19.405" y1="132.029" x2="-19.688" y2="131.551" xlink:href="#b"/><linearGradient id="dq" x1="-21.904" y1="131.556" x2="-21.038" y2="131.556" xlink:href="#b"/><linearGradient id="dr" x1="-23.535" y1="131.964" x2="-22.669" y2="131.964" xlink:href="#b"/><linearGradient id="ds" x1="-110.505" y1="-48.456" x2="-110.788" y2="-48.934" xlink:href="#b"/><linearGradient id="dt" x1="-109.924" y1="-51.686" x2="-110.207" y2="-52.164" xlink:href="#b"/><linearGradient id="du" x1="-111.005" y1="-46.929" x2="-110.139" y2="-46.929" xlink:href="#b"/><linearGradient id="dv" x1="-15.408" y1="127.414" x2="-15.691" y2="126.936" xlink:href="#b"/><linearGradient id="dw" x1="-17.907" y1="126.941" x2="-17.041" y2="126.941" xlink:href="#b"/><linearGradient id="dx" x1="-17.54" y1="124.541" x2="-16.673" y2="124.541" xlink:href="#b"/><linearGradient id="dy" x1="-19.625" y1="127.449" x2="-18.759" y2="127.449" xlink:href="#b"/><linearGradient id="dz" x1="-115.55" y1="-70.312" x2="-115.833" y2="-70.79" xlink:href="#b"/><linearGradient id="ea" x1="-36.835" y1="132.766" x2="-35.969" y2="132.766" xlink:href="#b"/><linearGradient id="eb" x1="-35.158" y1="133.806" x2="-34.292" y2="133.806" xlink:href="#b"/><linearGradient id="ec" x1="-111.554" y1="-65.697" x2="-111.837" y2="-66.175" xlink:href="#b"/><linearGradient id="ed" x1="-107.561" y1="-61.086" x2="-107.844" y2="-61.565" xlink:href="#b"/><linearGradient id="ee" x1="-28.845" y1="123.541" x2="-27.979" y2="123.541" xlink:href="#b"/><linearGradient id="ef" x1="-103.564" y1="-56.471" x2="-103.847" y2="-56.949" xlink:href="#b"/><linearGradient id="eg" x1="-24.848" y1="118.926" x2="-23.982" y2="118.926" xlink:href="#b"/><linearGradient id="eh" x1="-114.181" y1="-70.731" x2="-114.464" y2="-71.209" xlink:href="#b"/><linearGradient id="ei" x1="-112.437" y1="-72.744" x2="-112.72" y2="-73.222" xlink:href="#b"/><radialGradient id="ej" cx="-0.655" cy="0.617" r="0.775" gradientTransform="translate(-173.384 78.526) rotate(90) scale(1 1.732)" xlink:href="#b"/><linearGradient id="ek" x1="-114.681" y1="-69.204" x2="-113.815" y2="-69.204" xlink:href="#b"/><linearGradient id="el" x1="-112.937" y1="-71.217" x2="-112.071" y2="-71.217" xlink:href="#b"/><radialGradient id="em" cx="-0.655" cy="0.617" r="0.775" gradientTransform="translate(-171.385 78.104) rotate(90) scale(1 1.732)" xlink:href="#g"/><linearGradient id="en" x1="-36.442" y1="129.645" x2="-36.725" y2="129.167" xlink:href="#b"/><linearGradient id="eo" x1="-34.699" y1="131.658" x2="-34.982" y2="131.18" xlink:href="#b"/><linearGradient id="ep" x1="-111.987" y1="-62.871" x2="-112.27" y2="-63.349" xlink:href="#b"/><linearGradient id="eq" x1="-32.251" y1="132.158" x2="-32.535" y2="131.68" xlink:href="#b"/><radialGradient id="er" cx="1.655" cy="0.383" r="0.775" gradientTransform="translate(-150.764 29.469) rotate(-90) scale(1 1.732)" xlink:href="#b"/><radialGradient id="es" cx="1.655" cy="0.383" r="0.775" gradientTransform="translate(-148.766 29.891) rotate(-90) scale(1 1.732)" xlink:href="#g"/><linearGradient id="et" x1="-38.941" y1="129.171" x2="-38.075" y2="129.171" xlink:href="#b"/><linearGradient id="ev" x1="-37.197" y1="131.185" x2="-36.331" y2="131.185" xlink:href="#b"/><linearGradient id="ew" x1="-110.184" y1="-66.116" x2="-110.467" y2="-66.594" xlink:href="#b"/><linearGradient id="ey" x1="-108.44" y1="-68.129" x2="-108.723" y2="-68.607" xlink:href="#b"/><radialGradient id="ez" cx="-0.655" cy="0.617" r="0.775" gradientTransform="translate(-165.39 76.837) rotate(90) scale(1 1.732)" xlink:href="#b"/><linearGradient id="fa" x1="-110.684" y1="-64.589" x2="-109.818" y2="-64.589" xlink:href="#b"/><linearGradient id="fb" x1="-108.94" y1="-66.602" x2="-108.074" y2="-66.602" xlink:href="#b"/><radialGradient id="fc" cx="-0.655" cy="0.617" r="0.775" gradientTransform="translate(-163.392 76.415) rotate(90) scale(1 1.732)" xlink:href="#g"/><linearGradient id="fd" x1="-32.445" y1="125.03" x2="-32.728" y2="124.551" xlink:href="#b"/><linearGradient id="fe" x1="-30.702" y1="127.043" x2="-30.985" y2="126.565" xlink:href="#b"/><linearGradient id="ff" x1="-29.146" y1="128.872" x2="-29.429" y2="128.394" xlink:href="#b"/><radialGradient id="fg" cx="1.655" cy="0.383" r="0.775" gradientTransform="translate(-142.771 31.158) rotate(-90) scale(1 1.732)" xlink:href="#b"/><radialGradient id="fh" cx="1.655" cy="0.383" r="0.775" gradientTransform="translate(-140.772 31.581) rotate(-90) scale(1 1.732)" xlink:href="#g"/><linearGradient id="fi" x1="-34.944" y1="124.556" x2="-34.078" y2="124.556" xlink:href="#b"/><linearGradient id="fk" x1="-33.201" y1="126.569" x2="-32.335" y2="126.569" xlink:href="#b"/><linearGradient id="fl" x1="-106.191" y1="-61.505" x2="-106.474" y2="-61.983" xlink:href="#b"/><linearGradient id="fn" x1="-104.448" y1="-63.518" x2="-104.731" y2="-63.997" xlink:href="#b"/><radialGradient id="fo" cx="-0.655" cy="0.617" r="0.775" gradientTransform="translate(-157.405 75.149) rotate(90) scale(1 1.732)" xlink:href="#b"/><linearGradient id="fp" x1="-106.691" y1="-59.979" x2="-105.825" y2="-59.979" xlink:href="#b"/><linearGradient id="fq" x1="-26.06" y1="123.301" x2="-25.194" y2="123.301" xlink:href="#b"/><linearGradient id="fr" x1="-106.494" y1="-56.75" x2="-105.628" y2="-56.75" xlink:href="#b"/><linearGradient id="fs" x1="-22.794" y1="121.856" x2="-21.928" y2="121.856" xlink:href="#b"/><linearGradient id="ft" x1="-105.243" y1="-52.979" x2="-104.377" y2="-52.979" xlink:href="#b"/><linearGradient id="fu" x1="-104.948" y1="-61.992" x2="-104.082" y2="-61.992" xlink:href="#b"/><radialGradient id="fv" cx="-0.655" cy="0.617" r="0.775" gradientTransform="translate(-155.406 74.727) rotate(90) scale(1 1.732)" xlink:href="#g"/><linearGradient id="fw" x1="-28.453" y1="120.419" x2="-28.736" y2="119.941" xlink:href="#b"/><linearGradient id="fx" x1="-26.709" y1="122.432" x2="-26.992" y2="121.954" xlink:href="#b"/><radialGradient id="fy" cx="1.655" cy="0.383" r="0.775" gradientTransform="translate(-134.785 32.846) rotate(-90) scale(1 1.732)" xlink:href="#b"/><radialGradient id="fz" cx="1.655" cy="0.383" r="0.775" gradientTransform="translate(-132.787 33.268) rotate(-90) scale(1 1.732)" xlink:href="#g"/><linearGradient id="ga" x1="-30.951" y1="119.946" x2="-30.085" y2="119.946" xlink:href="#b"/><linearGradient id="gc" x1="-29.208" y1="121.959" x2="-28.342" y2="121.959" xlink:href="#b"/><linearGradient id="gd" x1="-102.194" y1="-56.89" x2="-102.477" y2="-57.368" xlink:href="#b"/><linearGradient id="gf" x1="-100.451" y1="-58.903" x2="-100.734" y2="-59.381" xlink:href="#b"/><radialGradient id="gg" cx="-0.655" cy="0.617" r="0.775" gradientTransform="translate(-149.411 73.46) rotate(90) scale(1 1.732)" xlink:href="#b"/><linearGradient id="gh" x1="-102.694" y1="-55.363" x2="-101.828" y2="-55.363" xlink:href="#b"/><linearGradient id="gi" x1="-102.422" y1="-51.723" x2="-101.556" y2="-51.723" xlink:href="#b"/><linearGradient id="gj" x1="-100.951" y1="-57.377" x2="-100.085" y2="-57.377" xlink:href="#b"/><radialGradient id="gk" cx="-0.655" cy="0.617" r="0.775" gradientTransform="translate(-147.413 73.038) rotate(90) scale(1 1.732)" xlink:href="#g"/><linearGradient id="gl" x1="-24.456" y1="115.804" x2="-24.739" y2="115.326" xlink:href="#b"/><linearGradient id="gm" x1="-22.712" y1="117.817" x2="-22.995" y2="117.339" xlink:href="#b"/><radialGradient id="gn" cx="1.655" cy="0.383" r="0.775" gradientTransform="translate(-126.791 34.535) rotate(-90) scale(1 1.732)" xlink:href="#b"/><radialGradient id="go" cx="1.655" cy="0.383" r="0.775" gradientTransform="translate(-124.793 34.957) rotate(-90) scale(1 1.732)" xlink:href="#g"/><linearGradient id="gp" x1="-26.954" y1="115.331" x2="-26.088" y2="115.331" xlink:href="#b"/><linearGradient id="gq" x1="-25.211" y1="117.344" x2="-24.345" y2="117.344" xlink:href="#b"/><linearGradient id="gr" x1="-112.085" y1="-74.313" x2="-112.368" y2="-74.791" xlink:href="#b"/><radialGradient id="gs" cx="-0.655" cy="0.617" r="0.775" gradientTransform="translate(-174.391 74.631) rotate(90) scale(1 1.732)" xlink:href="#b"/><linearGradient id="gt" x1="-112.585" y1="-72.787" x2="-111.719" y2="-72.787" xlink:href="#b"/><linearGradient id="gu" x1="-110.842" y1="-74.8" x2="-109.976" y2="-74.8" xlink:href="#b"/><radialGradient id="gv" cx="-0.655" cy="0.617" r="0.775" gradientTransform="translate(-172.393 74.209) rotate(90) scale(1 1.732)" xlink:href="#g"/><linearGradient id="gw" x1="-39.545" y1="127.225" x2="-39.828" y2="126.747" xlink:href="#b"/><linearGradient id="gx" x1="-37.801" y1="129.238" x2="-38.084" y2="128.76" xlink:href="#b"/><radialGradient id="gy" cx="1.655" cy="0.383" r="0.775" gradientTransform="translate(-151.771 25.149) rotate(-90) scale(1 1.732)" xlink:href="#b"/><radialGradient id="gz" cx="1.655" cy="0.383" r="0.775" gradientTransform="translate(-149.773 25.571) rotate(-90) scale(1 1.732)" xlink:href="#g"/><linearGradient id="ha" x1="-40.3" y1="128.765" x2="-39.434" y2="128.765" xlink:href="#b"/><linearGradient id="hb" x1="-108.088" y1="-69.698" x2="-108.371" y2="-70.176" xlink:href="#b"/><radialGradient id="hc" cx="-0.655" cy="0.617" r="0.775" gradientTransform="translate(-166.397 72.942) rotate(90) scale(1 1.732)" xlink:href="#b"/><linearGradient id="hd" x1="-108.588" y1="-68.171" x2="-107.722" y2="-68.171" xlink:href="#b"/><linearGradient id="he" x1="-106.845" y1="-70.185" x2="-105.979" y2="-70.185" xlink:href="#b"/><radialGradient id="hf" cx="-0.655" cy="0.617" r="0.775" gradientTransform="translate(-164.399 72.52) rotate(90) scale(1 1.732)" xlink:href="#g"/><linearGradient id="hg" x1="-35.548" y1="122.61" x2="-35.831" y2="122.132" xlink:href="#b"/><linearGradient id="hh" x1="-33.804" y1="124.623" x2="-34.087" y2="124.145" xlink:href="#b"/><radialGradient id="hi" cx="1.655" cy="0.383" r="0.775" gradientTransform="translate(-143.778 26.838) rotate(-90) scale(1 1.732)" xlink:href="#b"/><radialGradient id="hj" cx="1.655" cy="0.383" r="0.775" gradientTransform="translate(-141.779 27.26) rotate(-90) scale(1 1.732)" xlink:href="#g"/><linearGradient id="hk" x1="-36.303" y1="124.15" x2="-35.437" y2="124.15" xlink:href="#b"/><linearGradient id="hl" x1="-104.096" y1="-65.088" x2="-104.379" y2="-65.566" xlink:href="#b"/><radialGradient id="hm" cx="-0.655" cy="0.617" r="0.775" gradientTransform="translate(-158.412 71.255) rotate(90) scale(1 1.732)" xlink:href="#b"/><linearGradient id="hn" x1="-104.596" y1="-63.561" x2="-103.73" y2="-63.561" xlink:href="#b"/><linearGradient id="ho" x1="-102.852" y1="-65.574" x2="-101.986" y2="-65.574" xlink:href="#b"/><radialGradient id="hp" cx="-0.655" cy="0.617" r="0.775" gradientTransform="translate(-156.413 70.832) rotate(90) scale(1 1.732)" xlink:href="#g"/><linearGradient id="hq" x1="-31.555" y1="118" x2="-31.838" y2="117.522" xlink:href="#b"/><linearGradient id="hr" x1="-29.812" y1="120.013" x2="-30.095" y2="119.535" xlink:href="#b"/><radialGradient id="hs" cx="1.655" cy="0.383" r="0.775" gradientTransform="translate(-135.792 28.525) rotate(-90) scale(1 1.732)" xlink:href="#b"/><radialGradient id="ht" cx="1.655" cy="0.383" r="0.775" gradientTransform="translate(-133.794 28.948) rotate(-90) scale(1 1.732)" xlink:href="#g"/><linearGradient id="hu" x1="-32.31" y1="119.539" x2="-31.444" y2="119.539" xlink:href="#b"/><linearGradient id="hv" x1="-100.099" y1="-60.472" x2="-100.382" y2="-60.951" xlink:href="#b"/><radialGradient id="hw" cx="-0.655" cy="0.617" r="0.775" gradientTransform="translate(-150.418 69.565) rotate(90) scale(1 1.732)" xlink:href="#b"/><linearGradient id="hx" x1="-100.599" y1="-58.946" x2="-99.733" y2="-58.946" xlink:href="#b"/><linearGradient id="hy" x1="-98.855" y1="-60.959" x2="-97.989" y2="-60.959" xlink:href="#b"/><radialGradient id="hz" cx="-0.655" cy="0.617" r="0.775" gradientTransform="translate(-148.42 69.143) rotate(90) scale(1 1.732)" xlink:href="#g"/><linearGradient id="ia" x1="-27.558" y1="113.384" x2="-27.841" y2="112.906" xlink:href="#b"/><linearGradient id="ib" x1="-25.815" y1="115.398" x2="-26.098" y2="114.919" xlink:href="#b"/><radialGradient id="ic" cx="1.655" cy="0.383" r="0.775" gradientTransform="translate(-127.799 30.215) rotate(-90) scale(1 1.732)" xlink:href="#b"/><radialGradient id="id" cx="1.655" cy="0.383" r="0.775" gradientTransform="translate(-125.8 30.637) rotate(-90) scale(1 1.732)" xlink:href="#g"/><linearGradient id="ie" x1="-28.313" y1="114.924" x2="-27.447" y2="114.924" xlink:href="#b"/></defs><g transform="translate(-406)"><g transform="translate(406)"><g class="b"><g class="c"><g transform="translate(-299.627 -307.034)"><path class="d" d="M1254.112-241.994l62.3-76.98,62.3,76.98Z" transform="translate(737.783 318.974)"/><path class="e" d="M1254.112-239l62.3,76.98,62.3-76.98Z" transform="translate(737.783 315.98)"/><path class="d" d="M1254.112-81.994l62.3-76.98,62.3,76.98Z" transform="translate(737.783 312.985)"/><path class="f" d="M1254.112-79l62.3,76.98,62.3-76.98Z" transform="translate(737.783 309.991)"/><path class="g" d="M1332.379-162.679l-62.3-76.98-62.3,76.98,62.3,76.98Z" transform="translate(721.592 316.005)"/><path class="h" d="M1161.837-241.994l62.3-76.98,62.3,76.98Z" transform="translate(705.545 318.974)"/><path class="d" d="M1161.837-239l62.3,76.98,62.3-76.98Z" transform="translate(705.545 315.98)"/><path class="i" d="M1161.837-81.994l62.3-76.98,62.3,76.98Z" transform="translate(705.545 312.985)"/><path class="j" d="M1161.837-79l62.3,76.98,62.3-76.98Z" transform="translate(705.545 309.991)"/><path class="k" d="M1240.1-162.679l-62.3-76.98-62.3,76.98,62.3,76.98Z" transform="translate(689.354 316.005)"/><path class="j" d="M1101.9-79l-62.3,76.98L977.287-79Z" transform="translate(641.068 309.991)"/><path class="l" d="M1101.9-81.994l-62.3-76.98-62.305,76.98Z" transform="translate(641.068 312.985)"/><path class="d" d="M1101.9-239l-62.3,76.98L977.287-239Z" transform="translate(641.068 315.98)"/><path class="m" d="M1101.9-241.994l-62.3-76.98-62.305,76.98Z" transform="translate(641.068 318.974)"/><path class="n" d="M1023.63-162.056l62.3,76.98,62.3-76.98-62.3-76.98Z" transform="translate(657.259 315.982)"/><path class="o" d="M931.355-162.056l62.3,76.98,62.3-76.98-62.3-76.98Z" transform="translate(625.02 315.982)"/><path class="p" d="M1194.172-79l-62.3,76.98L1069.562-79Z" transform="translate(673.306 309.991)"/><path class="d" d="M1194.172-81.994l-62.3-76.98-62.3,76.98Z" transform="translate(673.306 312.985)"/><path class="q" d="M1194.172-239l-62.3,76.98-62.3-76.98Z" transform="translate(673.306 315.98)"/><path class="d" d="M1194.172-241.994l-62.3-76.98-62.3,76.98Z" transform="translate(673.306 318.974)"/><path class="d" d="M885.012-241.994l62.3-76.98,62.3,76.98Z" transform="translate(608.829 318.974)"/><path class="r" d="M885.012-239l62.3,76.98,62.3-76.98Z" transform="translate(608.829 315.98)"/><path class="d" d="M885.012-81.994l62.3-76.98,62.3,76.98Z" transform="translate(608.829 312.985)"/><path class="s" d="M885.012-79l62.3,76.98,62.3-76.98Z" transform="translate(608.829 309.991)"/><path class="t" d="M963.28-162.679l-62.3-76.98-62.3,76.98,62.3,76.98Z" transform="translate(592.638 316.005)"/><path class="u" d="M792.738-241.994l62.3-76.98,62.3,76.98Z" transform="translate(576.59 318.974)"/><path class="d" d="M792.738-239l62.3,76.98,62.3-76.98Z" transform="translate(576.59 315.98)"/><path class="v" d="M792.738-81.994l62.3-76.98,62.3,76.98Z" transform="translate(576.59 312.985)"/><path class="j" d="M792.738-79l62.3,76.98L917.347-79Z" transform="translate(576.59 309.991)"/><path class="w" d="M871-162.679l-62.3-76.98-62.3,76.98L808.7-85.7Z" transform="translate(560.399 316.005)"/><path class="j" d="M732.8-79l-62.3,76.98L608.188-79Z" transform="translate(512.113 309.991)"/><path class="x" d="M732.8-81.994l-62.3-76.98-62.3,76.98Z" transform="translate(512.113 312.985)"/><path class="d" d="M732.8-239l-62.3,76.98L608.188-239Z" transform="translate(512.113 315.98)"/><path class="y" d="M732.8-241.994l-62.3-76.98-62.3,76.98Z" transform="translate(512.113 318.974)"/><path class="z" d="M654.531-162.056l62.3,76.98,62.3-76.98-62.3-76.98Z" transform="translate(528.304 315.982)"/><path class="aa" d="M562.256-162.056l62.3,76.98,62.3-76.98-62.3-76.98Z" transform="translate(496.065 315.982)"/><path class="ab" d="M825.072-79l-62.3,76.98L700.463-79Z" transform="translate(544.352 309.991)"/><path class="d" d="M825.072-81.994l-62.3-76.98-62.3,76.98Z" transform="translate(544.352 312.985)"/><path class="ac" d="M825.072-239l-62.3,76.98L700.463-239Z" transform="translate(544.352 315.98)"/><path class="d" d="M825.072-241.994l-62.3-76.98-62.3,76.98Z" transform="translate(544.352 318.974)"/><path class="d" d="M516.308-241.994l62.3-76.98,62.3,76.98Z" transform="translate(480.013 318.974)"/><path class="ad" d="M516.308-239l62.3,76.98,62.3-76.98Z" transform="translate(480.013 315.98)"/><path class="d" d="M516.308-81.994l62.3-76.98,62.3,76.98Z" transform="translate(480.013 312.985)"/><path class="ae" d="M516.308-79l62.3,76.98L640.918-79Z" transform="translate(480.013 309.991)"/><path class="af" d="M594.575-162.679l-62.3-76.98-62.3,76.98,62.3,76.98Z" transform="translate(463.821 316.005)"/><path class="ag" d="M424.034-241.994l62.3-76.98,62.3,76.98Z" transform="translate(447.774 318.974)"/><path class="d" d="M424.034-239l62.3,76.98,62.3-76.98Z" transform="translate(447.774 315.98)"/><path class="ah" d="M424.034-81.994l62.3-76.98,62.3,76.98Z" transform="translate(447.774 312.985)"/><path class="j" d="M424.034-79l62.3,76.98L548.643-79Z" transform="translate(447.774 309.991)"/><path class="ai" d="M502.3-162.679,440-239.66l-62.3,76.98L440-85.7Z" transform="translate(431.583 316.005)"/><path class="j" d="M364.093-79l-62.3,76.98L239.484-79Z" transform="translate(383.297 309.991)"/><path class="aj" d="M364.093-81.994l-62.3-76.98-62.3,76.98Z" transform="translate(383.297 312.985)"/><path class="d" d="M364.093-239l-62.3,76.98L239.484-239Z" transform="translate(383.297 315.98)"/><path class="ak" d="M364.093-241.994l-62.3-76.98-62.3,76.98Z" transform="translate(383.297 318.974)"/><path class="al" d="M285.827-162.056l62.3,76.98,62.3-76.98-62.3-76.98Z" transform="translate(399.488 315.982)"/><path class="am" d="M193.552-162.056l62.3,76.98,62.3-76.98-62.3-76.98Z" transform="translate(367.249 315.982)"/><path class="an" d="M456.368-79l-62.3,76.98L331.759-79Z" transform="translate(415.535 309.991)"/><path class="d" d="M456.368-81.994l-62.3-76.98-62.3,76.98Z" transform="translate(415.535 312.985)"/><path class="ao" d="M456.368-239l-62.3,76.98L331.759-239Z" transform="translate(415.535 315.98)"/><path class="d" d="M456.368-241.994l-62.3-76.98-62.3,76.98Z" transform="translate(415.535 318.974)"/><path class="d" d="M147.209-241.994l62.3-76.98,62.3,76.98Z" transform="translate(351.058 318.974)"/><path class="ap" d="M147.209-239l62.3,76.98,62.3-76.98Z" transform="translate(351.058 315.98)"/><path class="d" d="M147.209-81.994l62.3-76.98,62.3,76.98Z" transform="translate(351.058 312.985)"/><path class="aq" d="M147.209-79l62.3,76.98L271.818-79Z" transform="translate(351.058 309.991)"/><path class="ar" d="M225.476-162.679l-62.3-76.98-62.3,76.98,62.3,76.98Z" transform="translate(334.867 316.005)"/><path class="as" d="M54.934-241.994l62.3-76.98,62.3,76.98Z" transform="translate(318.819 318.974)"/><path class="d" d="M54.934-239l62.3,76.98,62.3-76.98Z" transform="translate(318.819 315.98)"/><path class="at" d="M54.934-81.994l62.3-76.98,62.3,76.98Z" transform="translate(318.819 312.985)"/><path class="j" d="M54.934-79l62.3,76.98L179.544-79Z" transform="translate(318.819 309.991)"/><path class="au" d="M133.2-162.679,70.9-239.66l-62.3,76.98L70.9-85.7Z" transform="translate(302.628 316.005)"/><path class="j" d="M-5.006-79l-62.3,76.98L-129.616-79Z" transform="translate(254.342 309.991)"/><path class="av" d="M-5.006-81.994l-62.3-76.98-62.3,76.98Z" transform="translate(254.342 312.985)"/><path class="d" d="M-5.006-239l-62.3,76.98-62.3-76.98Z" transform="translate(254.342 315.98)"/><path class="aw" d="M-5.006-241.994l-62.3-76.98-62.3,76.98Z" transform="translate(254.342 318.974)"/><path class="ax" d="M-83.273-162.056l62.3,76.98,62.3-76.98-62.3-76.98Z" transform="translate(270.533 315.982)"/><path class="ay" d="M-175.548-162.056l62.3,76.98,62.3-76.98-62.3-76.98Z" transform="translate(238.294 315.982)"/><path class="az" d="M87.269-79,24.964-2.02-37.341-79Z" transform="translate(286.581 309.991)"/><path class="d" d="M87.269-81.994l-62.3-76.98-62.3,76.98Z" transform="translate(286.581 312.985)"/><path class="ba" d="M87.269-239l-62.3,76.98L-37.341-239Z" transform="translate(286.581 315.98)"/><path class="d" d="M87.269-241.994l-62.3-76.98-62.3,76.98Z" transform="translate(286.581 318.974)"/><path class="j" d="M1207.612-1.994l62.3-76.98,62.3,76.98Z" transform="translate(721.537 309.99)"/><path class="bb" d="M1207.612,1l62.3,76.98L1332.221,1Z" transform="translate(721.537 306.996)"/><path class="bc" d="M1207.612,159.006l62.3-76.98,62.3,76.98Z" transform="translate(721.537 303.963)"/><path class="bd" d="M1207.612,162l62.3,76.98,62.3-76.98Z" transform="translate(721.537 300.97)"/><path class="be" d="M1285.879,77.794l-62.3-76.98-62.3,76.98,62.3,76.98Z" transform="translate(705.346 307.003)"/><path class="bf" d="M1115.337-1.994l62.3-76.98,62.3,76.98Z" transform="translate(689.299 309.99)"/><path class="d" d="M1115.337,1l62.3,76.98L1239.946,1Z" transform="translate(689.299 306.996)"/><path class="bg" d="M1115.337,159.006l62.3-76.98,62.3,76.98Z" transform="translate(689.299 303.963)"/><path class="bh" d="M1115.337,162l62.3,76.98,62.3-76.98Z" transform="translate(689.299 300.97)"/><path class="bi" d="M1193.6,77.794,1131.3.814l-62.305,76.98,62.305,76.98Z" transform="translate(673.108 307.003)"/><path class="bh" d="M1055.4,162l-62.3,76.98L930.787,162Z" transform="translate(624.821 300.97)"/><path class="bj" d="M1055.4,159.006l-62.3-76.98-62.3,76.98Z" transform="translate(624.821 303.963)"/><path class="bk" d="M1055.4,1l-62.3,76.98L930.787,1Z" transform="translate(624.821 306.996)"/><path class="bl" d="M1055.4-1.994l-62.3-76.98-62.3,76.98Z" transform="translate(624.821 309.99)"/><path class="bm" d="M977.13,78.418l62.3,76.98,62.305-76.98-62.305-76.98Z" transform="translate(641.013 306.98)"/><path class="bn" d="M884.855,78.418l62.3,76.98,62.3-76.98-62.3-76.98Z" transform="translate(608.774 306.98)"/><path class="bo" d="M1147.671,162l-62.3,76.98-62.3-76.98Z" transform="translate(657.06 300.97)"/><path class="bc" d="M1147.671,159.006l-62.3-76.98-62.3,76.98Z" transform="translate(657.06 303.963)"/><path class="bp" d="M1147.671,1l-62.3,76.98L1023.062,1Z" transform="translate(657.06 306.996)"/><path class="j" d="M1147.671-1.994l-62.3-76.98-62.3,76.98Z" transform="translate(657.06 309.99)"/><path class="j" d="M838.512-1.994l62.3-76.98,62.3,76.98Z" transform="translate(592.583 309.99)"/><path class="bq" d="M838.512,1l62.3,76.98L963.122,1Z" transform="translate(592.583 306.996)"/><path class="bc" d="M838.512,159.006l62.3-76.98,62.3,76.98Z" transform="translate(592.583 303.963)"/><path class="br" d="M838.512,162l62.3,76.98,62.3-76.98Z" transform="translate(592.583 300.97)"/><path class="bs" d="M916.779,77.794,854.474.814l-62.3,76.98,62.3,76.98Z" transform="translate(576.392 307.003)"/><path class="bt" d="M746.237-1.994l62.3-76.98,62.3,76.98Z" transform="translate(560.344 309.99)"/><path class="bk" d="M746.237,1l62.3,76.98L870.847,1Z" transform="translate(560.344 306.996)"/><path class="bu" d="M746.237,159.006l62.3-76.98,62.3,76.98Z" transform="translate(560.344 303.963)"/><path class="bh" d="M746.237,162l62.3,76.98,62.3-76.98Z" transform="translate(560.344 300.97)"/><path class="bv" d="M824.5,77.794,762.2.814l-62.3,76.98,62.3,76.98Z" transform="translate(544.153 307.003)"/><path class="bh" d="M686.3,162l-62.3,76.98L561.688,162Z" transform="translate(495.867 300.97)"/><path class="bw" d="M686.3,159.006l-62.3-76.98-62.3,76.98Z" transform="translate(495.867 303.963)"/><path class="bx" d="M766.012,387.006l-62.3-76.98-62.3,76.98Z" transform="translate(523.717 295.429)"/><path class="bk" d="M686.3,1l-62.3,76.98L561.688,1Z" transform="translate(495.867 306.996)"/><path class="by" d="M686.3-1.994l-62.3-76.98-62.3,76.98Z" transform="translate(495.867 309.99)"/><path class="bz" d="M608.03,78.418l62.3,76.98,62.3-76.98-62.3-76.98Z" transform="translate(512.058 306.98)"/><path class="ca" d="M515.755,78.418l62.3,76.98,62.3-76.98-62.3-76.98Z" transform="translate(479.819 306.98)"/><path class="cb" d="M778.572,162l-62.3,76.98L653.962,162Z" transform="translate(528.106 300.97)"/><path class="bc" d="M778.572,159.006l-62.3-76.98-62.3,76.98Z" transform="translate(528.106 303.963)"/><path class="cc" d="M778.572,1l-62.3,76.98L653.962,1Z" transform="translate(528.106 306.996)"/><path class="j" d="M778.572-1.994l-62.3-76.98-62.3,76.98Z" transform="translate(528.106 309.99)"/><path class="j" d="M469.808-1.994l62.3-76.98,62.3,76.98Z" transform="translate(463.766 309.99)"/><path class="cd" d="M469.808,1l62.3,76.98L594.418,1Z" transform="translate(463.766 306.996)"/><path class="bc" d="M469.808,159.006l62.3-76.98,62.3,76.98Z" transform="translate(463.766 303.963)"/><path class="ce" d="M469.808,162l62.3,76.98,62.3-76.98Z" transform="translate(463.766 300.97)"/><path class="cf" d="M548.075,77.794,485.77.814l-62.3,76.98,62.3,76.98Z" transform="translate(447.575 307.003)"/><path class="cg" d="M377.533-1.994l62.3-76.98,62.3,76.98Z" transform="translate(431.528 309.99)"/><path class="bk" d="M377.533,1l62.3,76.98L502.143,1Z" transform="translate(431.528 306.996)"/><path class="ch" d="M377.533,159.006l62.3-76.98,62.3,76.98Z" transform="translate(431.528 303.963)"/><path class="bh" d="M377.533,162l62.3,76.98,62.3-76.98Z" transform="translate(431.528 300.97)"/><path class="ci" d="M455.8,77.794,393.5.814l-62.3,76.98,62.3,76.98Z" transform="translate(415.337 307.003)"/><path class="bh" d="M317.593,162l-62.3,76.98L192.984,162Z" transform="translate(367.05 300.97)"/><path class="cj" d="M317.593,159.006l-62.3-76.98-62.3,76.98Z" transform="translate(367.05 303.963)"/><path class="ck" d="M116.977,418.006l-62.3-76.98-62.3,76.98Z" transform="translate(296.96 294.268)"/><path class="bk" d="M317.593,1l-62.3,76.98L192.984,1Z" transform="translate(367.05 306.996)"/><path class="cl" d="M317.593-1.994l-62.3-76.98-62.3,76.98Z" transform="translate(367.05 309.99)"/><path class="cm" d="M239.326,78.418l62.3,76.98,62.3-76.98-62.3-76.98Z" transform="translate(383.242 306.98)"/><path class="cn" d="M147.051,78.418l62.3,76.98,62.3-76.98-62.3-76.98Z" transform="translate(351.003 306.98)"/><path class="co" d="M409.868,162l-62.3,76.98L285.258,162Z" transform="translate(399.289 300.97)"/><path class="bc" d="M409.868,159.006l-62.3-76.98-62.3,76.98Z" transform="translate(399.289 303.963)"/><path class="cp" d="M409.868,1l-62.3,76.98L285.258,1Z" transform="translate(399.289 306.996)"/><path class="j" d="M409.868-1.994l-62.3-76.98-62.3,76.98Z" transform="translate(399.289 309.99)"/><path class="j" d="M100.709-1.994l62.3-76.98,62.3,76.98Z" transform="translate(334.812 309.99)"/><path class="cq" d="M100.709,1l62.3,76.98L225.318,1Z" transform="translate(334.812 306.996)"/><path class="bc" d="M100.709,159.006l62.3-76.98,62.3,76.98Z" transform="translate(334.812 303.963)"/><path class="cr" d="M100.709,162l62.3,76.98,62.3-76.98Z" transform="translate(334.812 300.97)"/><path class="cs" d="M178.975,77.794,116.671.814l-62.3,76.98,62.3,76.98Z" transform="translate(318.621 307.003)"/><path class="ct" d="M8.434-1.994l62.3-76.98,62.3,76.98Z" transform="translate(302.573 309.99)"/><path class="bk" d="M8.434,1l62.3,76.98L133.043,1Z" transform="translate(302.573 306.996)"/><path class="cu" d="M8.434,159.006l62.3-76.98,62.3,76.98Z" transform="translate(302.573 303.963)"/><path class="bh" d="M8.434,162l62.3,76.98,62.3-76.98Z" transform="translate(302.573 300.97)"/><path class="cv" d="M86.7,77.794,24.4.814l-62.3,76.98,62.3,76.98Z" transform="translate(286.382 307.003)"/><path class="bh" d="M-51.507,162l-62.3,76.98-62.3-76.98Z" transform="translate(238.096 300.97)"/><path class="cw" d="M-51.507,159.006l-62.3-76.98-62.3,76.98Z" transform="translate(238.096 303.963)"/><path class="d" d="M-51.507,1l-62.3,76.98L-176.116,1Z" transform="translate(238.096 306.996)"/><path class="cx" d="M-51.507-1.994l-62.3-76.98-62.3,76.98Z" transform="translate(238.096 309.99)"/><path class="cy" d="M-129.773,78.418l62.3,76.98,62.3-76.98-62.3-76.98Z" transform="translate(254.287 306.98)"/><path class="cz" d="M-222.048,78.418l62.3,76.98,62.3-76.98-62.3-76.98Z" transform="translate(222.048 306.98)"/><path class="da" d="M40.768,162l-62.3,76.98L-83.841,162Z" transform="translate(270.335 300.97)"/><path class="bc" d="M40.768,159.006l-62.3-76.98-62.3,76.98Z" transform="translate(270.335 303.963)"/><path class="db" d="M40.768,1l-62.3,76.98L-83.841,1Z" transform="translate(270.335 306.996)"/><path class="j" d="M40.768-1.994l-62.3-76.98-62.3,76.98Z" transform="translate(270.335 309.99)"/><path class="bh" d="M1254.112,239.006l62.3-76.98,62.3,76.98Z" transform="translate(737.783 300.969)"/><path class="dc" d="M1254.112,242l62.3,76.98,62.3-76.98Z" transform="translate(737.783 297.975)"/><path class="dd" d="M1161.837,239.006l62.3-76.98,62.3,76.98Z" transform="translate(705.545 300.969)"/><path class="de" d="M1033.567,398l62.3,76.98,62.3-76.98Z" transform="translate(660.73 292.135)"/><path class="df" d="M987.793,475.006l62.3-76.98,62.3,76.98Z" transform="translate(644.738 292.134)"/><path class="dg" d="M1161.837,242l62.3,76.98,62.3-76.98Z" transform="translate(705.545 297.975)"/><path class="dg" d="M1101.9,242l-62.3,76.98L977.287,242Z" transform="translate(641.068 297.975)"/><path class="dh" d="M1101.9,239.006l-62.3-76.98-62.305,76.98Z" transform="translate(641.068 300.969)"/><path class="di" d="M1101.9,337.006l-62.3-76.98-62.305,76.98Z" transform="translate(641.068 297.3)"/><path class="dj" d="M1268.572,311l-62.3,76.98-62.3-76.98Z" transform="translate(699.3 295.392)"/><path class="bh" d="M1194.172,239.006l-62.3-76.98-62.3,76.98Z" transform="translate(673.306 300.969)"/><path class="bh" d="M885.012,239.006l62.3-76.98,62.3,76.98Z" transform="translate(608.829 300.969)"/><path class="dk" d="M885.012,242l62.3,76.98,62.3-76.98Z" transform="translate(608.829 297.975)"/><path class="dl" d="M792.738,239.006l62.3-76.98,62.3,76.98Z" transform="translate(576.59 300.969)"/><path class="dg" d="M792.738,242l62.3,76.98,62.3-76.98Z" transform="translate(576.59 297.975)"/><path class="dg" d="M732.8,242l-62.3,76.98L608.188,242Z" transform="translate(512.113 297.975)"/><path class="dm" d="M732.8,239.006l-62.3-76.98-62.3,76.98Z" transform="translate(512.113 300.969)"/><path class="dn" d="M825.072,242l-62.3,76.98L700.463,242Z" transform="translate(544.352 297.975)"/><path class="do" d="M916.745,311l-62.3,76.98L792.135,311Z" transform="translate(576.38 295.392)"/><path class="bh" d="M825.072,239.006l-62.3-76.98-62.3,76.98Z" transform="translate(544.352 300.969)"/><path class="bh" d="M516.308,239.006l62.3-76.98,62.3,76.98Z" transform="translate(480.013 300.969)"/><path class="dp" d="M516.308,242l62.3,76.98,62.3-76.98Z" transform="translate(480.013 297.975)"/><path class="dq" d="M424.034,239.006l62.3-76.98,62.3,76.98Z" transform="translate(447.774 300.969)"/><path class="dg" d="M424.034,242l62.3,76.98,62.3-76.98Z" transform="translate(447.774 297.975)"/><path class="dg" d="M364.093,242l-62.3,76.98L239.484,242Z" transform="translate(383.297 297.975)"/><path class="dr" d="M364.093,239.006l-62.3-76.98-62.3,76.98Z" transform="translate(383.297 300.969)"/><path class="ds" d="M456.368,242l-62.3,76.98L331.759,242Z" transform="translate(415.535 297.975)"/><path class="dt" d="M548.04,301l-62.3,76.98L423.431,301Z" transform="translate(447.563 295.766)"/><path class="bh" d="M456.368,239.006l-62.3-76.98-62.3,76.98Z" transform="translate(415.535 300.969)"/><path class="bh" d="M147.209,239.006l62.3-76.98,62.3,76.98Z" transform="translate(351.058 300.969)"/><path class="du" d="M147.209,242l62.3,76.98,62.3-76.98Z" transform="translate(351.058 297.975)"/><path class="dv" d="M249.51,398l62.3,76.98,62.3-76.98Z" transform="translate(386.799 292.135)"/><path class="dw" d="M54.934,239.006l62.3-76.98,62.3,76.98Z" transform="translate(318.819 300.969)"/><path class="dg" d="M54.934,242l62.3,76.98,62.3-76.98Z" transform="translate(318.819 297.975)"/><path class="dg" d="M-5.006,242l-62.3,76.98-62.3-76.98Z" transform="translate(254.342 297.975)"/><path class="dx" d="M-5.006,239.006l-62.3-76.98-62.3,76.98Z" transform="translate(254.342 300.969)"/><path class="dy" d="M87.269,242l-62.3,76.98L-37.341,242Z" transform="translate(286.581 297.975)"/><path class="dz" d="M-25.661,321l-62.3,76.98L-150.27,321Z" transform="translate(247.126 295.018)"/><path class="ea" d="M186.912,301l-62.3,76.98L62.3,301Z" transform="translate(321.394 295.766)"/><path class="bh" d="M87.269,239.006l-62.3-76.98-62.3,76.98Z" transform="translate(286.581 300.969)"/><path class="eb" d="M1254.112,883l62.3,76.98,62.3-76.98Z" transform="translate(737.783 273.98)"/><path class="ec" d="M1194.172,883l-62.3,76.98-62.3-76.98Z" transform="translate(673.306 273.98)"/><path class="ed" d="M1158.3,764,1096,840.98l-62.3-76.98Z" transform="translate(660.773 278.435)"/><path class="ee" d="M885.012,883l62.3,76.98,62.3-76.98Z" transform="translate(608.829 273.98)"/><path class="dg" d="M732.8,883l-62.3,76.98L608.188,883Z" transform="translate(512.113 273.98)"/><path class="ef" d="M516.308,883l62.3,76.98,62.3-76.98Z" transform="translate(480.013 273.98)"/><path class="eg" d="M456.368,883l-62.3,76.98L331.759,883Z" transform="translate(415.535 273.98)"/><path class="eh" d="M147.209,883l62.3,76.98,62.3-76.98Z" transform="translate(351.058 273.98)"/><path class="dg" d="M54.934,883l62.3,76.98,62.3-76.98Z" transform="translate(318.819 273.98)"/><path class="dg" d="M-5.006,883l-62.3,76.98-62.3-76.98Z" transform="translate(254.342 273.98)"/><path class="ei" d="M87.269,883l-62.3,76.98L-37.341,883Z" transform="translate(286.581 273.98)"/><path class="dg" d="M1207.612,960.006l62.3-76.98,62.3,76.98Z" transform="translate(721.537 273.979)"/><path class="ej" d="M1207.612,963l62.3,76.98,62.3-76.98Z" transform="translate(721.537 270.986)"/><path class="d" d="M1207.612,1121.006l62.3-76.98,62.3,76.98Z" transform="translate(721.537 267.953)"/><path class="ek" d="M1207.612,1124l62.3,76.98,62.3-76.98Z" transform="translate(721.537 264.959)"/><path class="el" d="M1285.879,1039.688l-62.3-76.98-62.3,76.98,62.3,76.98Z" transform="translate(705.346 270.997)"/><path class="em" d="M1115.337,960.006l62.3-76.98,62.3,76.98Z" transform="translate(689.299 273.979)"/><path class="bh" d="M1115.337,963l62.3,76.98,62.3-76.98Z" transform="translate(689.299 270.986)"/><path class="en" d="M1115.337,1121.006l62.3-76.98,62.3,76.98Z" transform="translate(689.299 267.953)"/><path class="bc" d="M1115.337,1124l62.3,76.98,62.3-76.98Z" transform="translate(689.299 264.959)"/><path class="eo" d="M1193.6,1039.688l-62.3-76.98-62.305,76.98,62.305,76.98Z" transform="translate(673.108 270.997)"/><path class="bc" d="M1055.4,1124l-62.3,76.98-62.3-76.98Z" transform="translate(624.821 264.959)"/><path class="ep" d="M1055.4,1121.006l-62.3-76.98-62.3,76.98Z" transform="translate(624.821 267.953)"/><path class="bh" d="M1055.4,963l-62.3,76.98L930.787,963Z" transform="translate(624.821 270.986)"/><path class="eq" d="M1055.4,960.006l-62.3-76.98-62.3,76.98Z" transform="translate(624.821 273.979)"/><path class="er" d="M792.012,750l62.3,76.98,62.3-76.98Z" transform="translate(576.337 278.959)"/><path class="es" d="M962.4,827.006l-62.3-76.98-62.3,76.98Z" transform="translate(592.329 278.958)"/><path class="et" d="M977.13,1040.311l62.3,76.98,62.305-76.98-62.305-76.98Z" transform="translate(641.013 270.973)"/><path class="eu" d="M884.855,1040.311l62.3,76.98,62.3-76.98-62.3-76.98Z" transform="translate(608.774 270.973)"/><path class="ev" d="M1147.671,1124l-62.3,76.98-62.3-76.98Z" transform="translate(657.06 264.959)"/><path class="bk" d="M1147.671,1121.006l-62.3-76.98-62.3,76.98Z" transform="translate(657.06 267.953)"/><path class="ew" d="M1147.671,963l-62.3,76.98-62.3-76.98Z" transform="translate(657.06 270.986)"/><path class="dg" d="M1147.671,960.006l-62.3-76.98-62.3,76.98Z" transform="translate(657.06 273.979)"/><path class="ex" d="M838.512,963l62.3,76.98,62.3-76.98Z" transform="translate(592.583 270.986)"/><path class="bk" d="M838.512,1121.006l62.3-76.98,62.3,76.98Z" transform="translate(592.583 267.953)"/><path class="ey" d="M838.512,1124l62.3,76.98,62.3-76.98Z" transform="translate(592.583 264.959)"/><path class="ez" d="M916.779,1039.688l-62.3-76.98-62.3,76.98,62.3,76.98Z" transform="translate(576.392 270.997)"/><path class="fa" d="M746.237,960.006l62.3-76.98,62.3,76.98Z" transform="translate(560.344 273.979)"/><path class="bh" d="M746.237,963l62.3,76.98,62.3-76.98Z" transform="translate(560.344 270.986)"/><path class="fb" d="M746.237,1121.006l62.3-76.98,62.3,76.98Z" transform="translate(560.344 267.953)"/><path class="bc" d="M746.237,1124l62.3,76.98,62.3-76.98Z" transform="translate(560.344 264.959)"/><path class="fc" d="M824.5,1039.688l-62.3-76.98-62.3,76.98,62.3,76.98Z" transform="translate(544.153 270.997)"/><path class="bc" d="M686.3,1124l-62.3,76.98-62.3-76.98Z" transform="translate(495.867 264.959)"/><path class="fd" d="M686.3,1121.006l-62.3-76.98-62.3,76.98Z" transform="translate(495.867 267.953)"/><path class="bh" d="M686.3,963l-62.3,76.98L561.688,963Z" transform="translate(495.867 270.986)"/><path class="fe" d="M686.3,960.006l-62.3-76.98-62.3,76.98Z" transform="translate(495.867 273.979)"/><path class="ff" d="M687.626,815.006l-62.3-76.98-62.3,76.98Z" transform="translate(496.331 279.407)"/><path class="fg" d="M608.03,1040.311l62.3,76.98,62.3-76.98-62.3-76.98Z" transform="translate(512.058 270.973)"/><path class="fh" d="M515.755,1040.311l62.3,76.98,62.3-76.98-62.3-76.98Z" transform="translate(479.819 270.973)"/><path class="fi" d="M778.572,1124l-62.3,76.98-62.3-76.98Z" transform="translate(528.106 264.959)"/><path class="bk" d="M778.572,1121.006l-62.3-76.98-62.3,76.98Z" transform="translate(528.106 267.953)"/><path class="fj" d="M778.572,963l-62.3,76.98L653.962,963Z" transform="translate(528.106 270.986)"/><path class="dg" d="M778.572,960.006l-62.3-76.98-62.3,76.98Z" transform="translate(528.106 273.979)"/><path class="dg" d="M469.808,960.006l62.3-76.98,62.3,76.98Z" transform="translate(463.766 273.979)"/><path class="fk" d="M469.808,963l62.3,76.98,62.3-76.98Z" transform="translate(463.766 270.986)"/><path class="bk" d="M469.808,1121.006l62.3-76.98,62.3,76.98Z" transform="translate(463.766 267.953)"/><path class="fl" d="M469.808,1124l62.3,76.98,62.3-76.98Z" transform="translate(463.766 264.959)"/><path class="fm" d="M548.075,1039.688l-62.3-76.98-62.3,76.98,62.3,76.98Z" transform="translate(447.575 270.997)"/><path class="fn" d="M377.533,960.006l62.3-76.98,62.3,76.98Z" transform="translate(431.528 273.979)"/><path class="fo" d="M318.2,764l-62.3,76.98L193.586,764Z" transform="translate(367.261 278.435)"/><path class="fp" d="M239.361,840.006l62.3-76.98,62.3,76.98Z" transform="translate(383.254 278.471)"/><path class="fq" d="M109.608,671,47.3,747.98-15,671Z" transform="translate(294.386 281.916)"/><path class="fr" d="M30.773,747.006l62.3-76.98,62.3,76.98Z" transform="translate(310.378 281.953)"/><path class="bh" d="M377.533,963l62.3,76.98,62.3-76.98Z" transform="translate(431.528 270.986)"/><path class="fs" d="M377.533,1121.006l62.3-76.98,62.3,76.98Z" transform="translate(431.528 267.953)"/><path class="bc" d="M377.533,1124l62.3,76.98,62.3-76.98Z" transform="translate(431.528 264.959)"/><path class="ft" d="M455.8,1039.688l-62.3-76.98-62.3,76.98,62.3,76.98Z" transform="translate(415.337 270.997)"/><path class="bc" d="M317.593,1124l-62.3,76.98-62.3-76.98Z" transform="translate(367.05 264.959)"/><path class="fu" d="M317.593,1121.006l-62.3-76.98-62.3,76.98Z" transform="translate(367.05 267.953)"/><path class="bh" d="M317.593,963l-62.3,76.98L192.984,963Z" transform="translate(367.05 270.986)"/><path class="fv" d="M317.593,960.006l-62.3-76.98-62.3,76.98Z" transform="translate(367.05 273.979)"/><path class="fw" d="M239.326,1040.311l62.3,76.98,62.3-76.98-62.3-76.98Z" transform="translate(383.242 270.973)"/><path class="fx" d="M147.051,1040.311l62.3,76.98,62.3-76.98-62.3-76.98Z" transform="translate(351.003 270.973)"/><path class="fy" d="M409.868,1124l-62.3,76.98-62.3-76.98Z" transform="translate(399.289 264.959)"/><path class="bk" d="M409.868,1121.006l-62.3-76.98-62.3,76.98Z" transform="translate(399.289 267.953)"/><path class="fz" d="M409.868,963l-62.3,76.98L285.258,963Z" transform="translate(399.289 270.986)"/><path class="dg" d="M409.868,960.006l-62.3-76.98-62.3,76.98Z" transform="translate(399.289 273.979)"/><path class="ga" d="M100.709,963l62.3,76.98,62.3-76.98Z" transform="translate(334.812 270.986)"/><path class="bk" d="M100.709,1121.006l62.3-76.98,62.3,76.98Z" transform="translate(334.812 267.953)"/><path class="gb" d="M100.709,1124l62.3,76.98,62.3-76.98Z" transform="translate(334.812 264.959)"/><path class="gc" d="M178.975,1039.688l-62.3-76.98-62.3,76.98,62.3,76.98Z" transform="translate(318.621 270.997)"/><path class="gd" d="M8.434,960.006l62.3-76.98,62.3,76.98Z" transform="translate(302.573 273.979)"/><path class="ge" d="M-149.668,827.006l62.3-76.98,62.3,76.98Z" transform="translate(247.336 278.958)"/><path class="bh" d="M8.434,963l62.3,76.98,62.3-76.98Z" transform="translate(302.573 270.986)"/><path class="gf" d="M8.434,1121.006l62.3-76.98,62.3,76.98Z" transform="translate(302.573 267.953)"/><path class="bc" d="M8.434,1124l62.3,76.98,62.3-76.98Z" transform="translate(302.573 264.959)"/><path class="gg" d="M86.7,1039.688l-62.3-76.98-62.3,76.98,62.3,76.98Z" transform="translate(286.382 270.997)"/><path class="bc" d="M-51.507,1124l-62.3,76.98-62.3-76.98Z" transform="translate(238.096 264.959)"/><path class="gh" d="M-51.507,1121.006l-62.3-76.98-62.3,76.98Z" transform="translate(238.096 267.953)"/><path class="bh" d="M-51.507,963l-62.3,76.98-62.3-76.98Z" transform="translate(238.096 270.986)"/><path class="gi" d="M-51.507,960.006l-62.3-76.98-62.3,76.98Z" transform="translate(238.096 273.979)"/><path class="gj" d="M-129.773,1040.311l62.3,76.98,62.3-76.98-62.3-76.98Z" transform="translate(254.287 270.973)"/><path class="gk" d="M-222.048,1040.311l62.3,76.98,62.3-76.98-62.3-76.98Z" transform="translate(222.048 270.973)"/><path class="gl" d="M40.768,1124l-62.3,76.98-62.3-76.98Z" transform="translate(270.335 264.959)"/><path class="d" d="M40.768,1121.006l-62.3-76.98-62.3,76.98Z" transform="translate(270.335 267.953)"/><path class="gm" d="M40.768,963l-62.3,76.98L-83.841,963Z" transform="translate(270.335 270.986)"/><path class="bc" d="M1254.112,1200.006l62.3-76.98,62.3,76.98Z" transform="translate(737.783 264.995)"/><path class="gn" d="M1254.112,1203l62.3,76.98,62.3-76.98Z" transform="translate(737.783 262.002)"/><path class="d" d="M1254.112,1361.006l62.3-76.98,62.3,76.98Z" transform="translate(737.783 258.969)"/><path class="go" d="M1332.379,1280.161l-62.3-76.98-62.3,76.98,62.3,76.98Z" transform="translate(721.592 261.995)"/><path class="gp" d="M1161.837,1200.006l62.3-76.98,62.3,76.98Z" transform="translate(705.545 264.995)"/><path class="d" d="M1161.837,1203l62.3,76.98,62.3-76.98Z" transform="translate(705.545 262.002)"/><path class="gq" d="M1161.837,1361.006l62.3-76.98,62.3,76.98Z" transform="translate(705.545 258.969)"/><path class="gr" d="M1240.1,1280.161l-62.3-76.98-62.3,76.98,62.3,76.98Z" transform="translate(689.354 261.995)"/><path class="gs" d="M1101.9,1361.006l-62.3-76.98-62.305,76.98Z" transform="translate(641.068 258.969)"/><path class="d" d="M1101.9,1203l-62.3,76.98L977.287,1203Z" transform="translate(641.068 262.002)"/><path class="gt" d="M1101.9,1200.006l-62.3-76.98-62.305,76.98Z" transform="translate(641.068 264.995)"/><path class="gu" d="M1023.63,1280.785l62.3,76.98,62.3-76.98-62.3-76.98Z" transform="translate(657.259 261.972)"/><path class="gv" d="M931.355,1280.785l62.3,76.98,62.3-76.98-62.3-76.98Z" transform="translate(625.02 261.972)"/><path class="d" d="M1194.172,1361.006l-62.3-76.98-62.3,76.98Z" transform="translate(673.306 258.969)"/><path class="gw" d="M1194.172,1203l-62.3,76.98-62.3-76.98Z" transform="translate(673.306 262.002)"/><path class="bc" d="M1194.172,1200.006l-62.3-76.98-62.3,76.98Z" transform="translate(673.306 264.995)"/><path class="bc" d="M885.012,1200.006l62.3-76.98,62.3,76.98Z" transform="translate(608.829 264.995)"/><path class="gx" d="M885.012,1203l62.3,76.98,62.3-76.98Z" transform="translate(608.829 262.002)"/><path class="d" d="M885.012,1361.006l62.3-76.98,62.3,76.98Z" transform="translate(608.829 258.969)"/><path class="gy" d="M963.28,1280.161l-62.3-76.98-62.3,76.98,62.3,76.98Z" transform="translate(592.638 261.995)"/><path class="gz" d="M792.738,1200.006l62.3-76.98,62.3,76.98Z" transform="translate(576.59 264.995)"/><path class="d" d="M792.738,1203l62.3,76.98,62.3-76.98Z" transform="translate(576.59 262.002)"/><path class="ha" d="M792.738,1361.006l62.3-76.98,62.3,76.98Z" transform="translate(576.59 258.969)"/><path class="hb" d="M871,1280.161l-62.3-76.98-62.3,76.98,62.3,76.98Z" transform="translate(560.399 261.995)"/><path class="hc" d="M732.8,1361.006l-62.3-76.98-62.3,76.98Z" transform="translate(512.113 258.969)"/><path class="d" d="M732.8,1203l-62.3,76.98-62.3-76.98Z" transform="translate(512.113 262.002)"/><path class="hd" d="M732.8,1200.006l-62.3-76.98-62.3,76.98Z" transform="translate(512.113 264.995)"/><path class="he" d="M654.531,1280.785l62.3,76.98,62.3-76.98-62.3-76.98Z" transform="translate(528.304 261.972)"/><path class="hf" d="M562.256,1280.785l62.3,76.98,62.3-76.98-62.3-76.98Z" transform="translate(496.065 261.972)"/><path class="d" d="M825.072,1361.006l-62.3-76.98-62.3,76.98Z" transform="translate(544.352 258.969)"/><path class="hg" d="M825.072,1203l-62.3,76.98-62.3-76.98Z" transform="translate(544.352 262.002)"/><path class="bc" d="M825.072,1200.006l-62.3-76.98-62.3,76.98Z" transform="translate(544.352 264.995)"/><path class="bc" d="M516.308,1200.006l62.3-76.98,62.3,76.98Z" transform="translate(480.013 264.995)"/><path class="hh" d="M516.308,1203l62.3,76.98,62.3-76.98Z" transform="translate(480.013 262.002)"/><path class="d" d="M516.308,1361.006l62.3-76.98,62.3,76.98Z" transform="translate(480.013 258.969)"/><path class="hi" d="M594.575,1280.161l-62.3-76.98-62.3,76.98,62.3,76.98Z" transform="translate(463.821 261.995)"/><path class="hj" d="M424.034,1200.006l62.3-76.98,62.3,76.98Z" transform="translate(447.774 264.995)"/><path class="d" d="M424.034,1203l62.3,76.98,62.3-76.98Z" transform="translate(447.774 262.002)"/><path class="hk" d="M424.034,1361.006l62.3-76.98,62.3,76.98Z" transform="translate(447.774 258.969)"/><path class="hl" d="M502.3,1280.161l-62.3-76.98-62.3,76.98,62.3,76.98Z" transform="translate(431.583 261.995)"/><path class="hm" d="M364.093,1361.006l-62.3-76.98-62.3,76.98Z" transform="translate(383.297 258.969)"/><path class="d" d="M364.093,1203l-62.3,76.98-62.3-76.98Z" transform="translate(383.297 262.002)"/><path class="hn" d="M364.093,1200.006l-62.3-76.98-62.3,76.98Z" transform="translate(383.297 264.995)"/><path class="ho" d="M285.827,1280.785l62.3,76.98,62.3-76.98-62.3-76.98Z" transform="translate(399.488 261.972)"/><path class="hp" d="M193.552,1280.785l62.3,76.98,62.3-76.98-62.3-76.98Z" transform="translate(367.249 261.972)"/><path class="d" d="M456.368,1361.006l-62.3-76.98-62.3,76.98Z" transform="translate(415.535 258.969)"/><path class="hq" d="M456.368,1203l-62.3,76.98-62.3-76.98Z" transform="translate(415.535 262.002)"/><path class="bc" d="M456.368,1200.006l-62.3-76.98-62.3,76.98Z" transform="translate(415.535 264.995)"/><path class="bc" d="M147.209,1200.006l62.3-76.98,62.3,76.98Z" transform="translate(351.058 264.995)"/><path class="hr" d="M147.209,1203l62.3,76.98,62.3-76.98Z" transform="translate(351.058 262.002)"/><path class="d" d="M147.209,1361.006l62.3-76.98,62.3,76.98Z" transform="translate(351.058 258.969)"/><path class="hs" d="M225.476,1280.161l-62.3-76.98-62.3,76.98,62.3,76.98Z" transform="translate(334.867 261.995)"/><path class="ht" d="M54.934,1200.006l62.3-76.98,62.3,76.98Z" transform="translate(318.819 264.995)"/><path class="d" d="M54.934,1203l62.3,76.98,62.3-76.98Z" transform="translate(318.819 262.002)"/><path class="hu" d="M54.934,1361.006l62.3-76.98,62.3,76.98Z" transform="translate(318.819 258.969)"/><path class="hv" d="M133.2,1280.161l-62.3-76.98-62.3,76.98,62.3,76.98Z" transform="translate(302.628 261.995)"/><path class="hw" d="M-5.006,1361.006l-62.3-76.98-62.3,76.98Z" transform="translate(254.342 258.969)"/><path class="d" d="M-5.006,1203l-62.3,76.98-62.3-76.98Z" transform="translate(254.342 262.002)"/><path class="hx" d="M-5.006,1200.006l-62.3-76.98-62.3,76.98Z" transform="translate(254.342 264.995)"/><path class="hy" d="M-83.273,1280.785l62.3,76.98,62.3-76.98-62.3-76.98Z" transform="translate(270.533 261.972)"/><path class="hz" d="M-175.548,1280.785l62.3,76.98,62.3-76.98-62.3-76.98Z" transform="translate(238.294 261.972)"/><path class="d" d="M87.269,1361.006l-62.3-76.98-62.3,76.98Z" transform="translate(286.581 258.969)"/><path class="ia" d="M87.269,1203l-62.3,76.98-62.3-76.98Z" transform="translate(286.581 262.002)"/><path class="bc" d="M87.269,1200.006l-62.3-76.98-62.3,76.98Z" transform="translate(286.581 264.995)"/></g></g></g></g><rect class="ib" width="1514" height="1080" transform="translate(406)"/></g></svg>